REM DIRINDEX 1\2\3,1\2\4,1\2\5,1\2\6
REM DIRNAME folder01,folder02,folder03,folder04,folder05,folder06
TITLE ""
FILE "002 002.mp3" MP3
  TRACK 01 AUDIO
    TITLE "0:"
    INDEX 01 00:00:00
  TRACK 02 AUDIO
    TITLE "3:cjc157_0002"
    INDEX 01 00:00:13
  TRACK 03 AUDIO
    TITLE "0:"
    INDEX 01 00:01:69
  TRACK 04 AUDIO
    TITLE "4:cjc157_0003"
    INDEX 01 00:02:42
  TRACK 05 AUDIO
    TITLE "0:"
    INDEX 01 00:03:49
  TRACK 06 AUDIO
    TITLE "5:cjc157_0004"
    INDEX 01 00:04:21
  TRACK 07 AUDIO
    TITLE "0:"
    INDEX 01 00:07:39
  TRACK 08 AUDIO
    TITLE "5:cjc157_0005"
    INDEX 01 00:08:11
  TRACK 09 AUDIO
    TITLE "0:"
    INDEX 01 00:11:44
  TRACK 10 AUDIO
    TITLE "3:cjc157_0006"
    INDEX 01 00:12:22
  TRACK 11 AUDIO
    TITLE "0:"
    INDEX 01 00:13:41
  TRACK 12 AUDIO
    TITLE "4:cjc157_0007"
    INDEX 01 00:14:13
  TRACK 13 AUDIO
    TITLE "0:"
    INDEX 01 00:15:40
  TRACK 14 AUDIO
    TITLE "5:cjc157_0008"
    INDEX 01 00:16:12
  TRACK 15 AUDIO
    TITLE "0:"
    INDEX 01 00:18:13
  TRACK 16 AUDIO
    TITLE "5:cjc157_0009"
    INDEX 01 00:18:58
  TRACK 17 AUDIO
    TITLE "0:"
    INDEX 01 00:20:08
  TRACK 18 AUDIO
    TITLE "3:cjc157_0010"
    INDEX 01 00:20:51
  TRACK 19 AUDIO
    TITLE "0:"
    INDEX 01 00:22:05
  TRACK 20 AUDIO
    TITLE "4:cjc157_0011"
    INDEX 01 00:22:52
  TRACK 21 AUDIO
    TITLE "0:"
    INDEX 01 00:23:63
  TRACK 22 AUDIO
    TITLE "5:cjc157_0012"
    INDEX 01 00:24:33
  TRACK 23 AUDIO
    TITLE "0:"
    INDEX 01 00:26:22
  TRACK 24 AUDIO
    TITLE "5:cjc157_0013"
    INDEX 01 00:26:67
  TRACK 25 AUDIO
    TITLE "0:"
    INDEX 01 00:29:38
  TRACK 26 AUDIO
    TITLE "3:cjc157_0014"
    INDEX 01 00:30:10
  TRACK 27 AUDIO
    TITLE "0:"
    INDEX 01 00:31:43
  TRACK 28 AUDIO
    TITLE "4:cjc157_0015"
    INDEX 01 00:32:13
  TRACK 29 AUDIO
    TITLE "0:"
    INDEX 01 00:33:13
  TRACK 30 AUDIO
    TITLE "5:cjc157_0016"
    INDEX 01 00:33:64
  TRACK 31 AUDIO
    TITLE "0:"
    INDEX 01 00:36:68
  TRACK 32 AUDIO
    TITLE "5:cjc157_0017"
    INDEX 01 00:37:50
  TRACK 33 AUDIO
    TITLE "0:"
    INDEX 01 00:41:44
  TRACK 34 AUDIO
    TITLE "5:cjc157_0018"
    INDEX 01 00:42:12
  TRACK 35 AUDIO
    TITLE "0:"
    INDEX 01 00:43:70
  TRACK 36 AUDIO
    TITLE "3:cjc157_0019"
    INDEX 01 00:44:40
  TRACK 37 AUDIO
    TITLE "0:"
    INDEX 01 00:45:55
  TRACK 38 AUDIO
    TITLE "4:cjc157_0020"
    INDEX 01 00:46:29
  TRACK 39 AUDIO
    TITLE "0:"
    INDEX 01 00:47:38
  TRACK 40 AUDIO
    TITLE "5:cjc157_0021"
    INDEX 01 00:48:12
  TRACK 41 AUDIO
    TITLE "0:"
    INDEX 01 00:50:03
  TRACK 42 AUDIO
    TITLE "5:cjc157_0022"
    INDEX 01 00:50:52
  TRACK 43 AUDIO
    TITLE "0:"
    INDEX 01 00:52:36
  TRACK 44 AUDIO
    TITLE "3:cjc157_0023"
    INDEX 01 00:53:11
  TRACK 45 AUDIO
    TITLE "0:"
    INDEX 01 00:54:29
  TRACK 46 AUDIO
    TITLE "4:cjc157_0024"
    INDEX 01 00:55:03
  TRACK 47 AUDIO
    TITLE "0:"
    INDEX 01 00:56:06
  TRACK 48 AUDIO
    TITLE "5:cjc157_0025"
    INDEX 01 00:56:49
  TRACK 49 AUDIO
    TITLE "0:"
    INDEX 01 00:58:13
  TRACK 50 AUDIO
    TITLE "5:cjc157_0026"
    INDEX 01 00:58:58
  TRACK 51 AUDIO
    TITLE "0:"
    INDEX 01 01:00:29
  TRACK 52 AUDIO
    TITLE "3:cjc157_0027"
    INDEX 01 01:01:05
  TRACK 53 AUDIO
    TITLE "0:"
    INDEX 01 01:02:18
  TRACK 54 AUDIO
    TITLE "4:cjc157_0028"
    INDEX 01 01:02:65
  TRACK 55 AUDIO
    TITLE "0:"
    INDEX 01 01:03:69
  TRACK 56 AUDIO
    TITLE "5:cjc157_0029"
    INDEX 01 01:04:41
  TRACK 57 AUDIO
    TITLE "0:"
    INDEX 01 01:06:20
  TRACK 58 AUDIO
    TITLE "5:cjc157_0030"
    INDEX 01 01:06:61
  TRACK 59 AUDIO
    TITLE "0:"
    INDEX 01 01:08:60
  TRACK 60 AUDIO
    TITLE "3:cjc157_0031"
    INDEX 01 01:09:30
  TRACK 61 AUDIO
    TITLE "0:"
    INDEX 01 01:10:30
  TRACK 62 AUDIO
    TITLE "4:cjc157_0032"
    INDEX 01 01:10:73
  TRACK 63 AUDIO
    TITLE "0:"
    INDEX 01 01:11:68
  TRACK 64 AUDIO
    TITLE "5:cjc157_0033"
    INDEX 01 01:12:40
  TRACK 65 AUDIO
    TITLE "0:"
    INDEX 01 01:14:14
  TRACK 66 AUDIO
    TITLE "5:cjc157_0034"
    INDEX 01 01:14:61
  TRACK 67 AUDIO
    TITLE "0:"
    INDEX 01 01:17:32
  TRACK 68 AUDIO
    TITLE "5:cjc157_0035"
    INDEX 01 01:18:06
  TRACK 69 AUDIO
    TITLE "0:"
    INDEX 01 01:19:62
  TRACK 70 AUDIO
    TITLE "3:cjc157_0036"
    INDEX 01 01:20:34
  TRACK 71 AUDIO
    TITLE "0:"
    INDEX 01 01:21:70
  TRACK 72 AUDIO
    TITLE "4:cjc157_0037"
    INDEX 01 01:22:37
  TRACK 73 AUDIO
    TITLE "0:"
    INDEX 01 01:23:60
  TRACK 74 AUDIO
    TITLE "5:cjc157_0038"
    INDEX 01 01:24:30
  TRACK 75 AUDIO
    TITLE "0:"
    INDEX 01 01:27:63
  TRACK 76 AUDIO
    TITLE "3:cjc157_0039"
    INDEX 01 01:28:39
  TRACK 77 AUDIO
    TITLE "0:"
    INDEX 01 01:29:62
  TRACK 78 AUDIO
    TITLE "4:cjc157_0040"
    INDEX 01 01:30:32
  TRACK 79 AUDIO
    TITLE "0:"
    INDEX 01 01:31:47
  TRACK 80 AUDIO
    TITLE "5:cjc157_0041"
    INDEX 01 01:32:15
  TRACK 81 AUDIO
    TITLE "0:"
    INDEX 01 01:34:54
